<svg width="21" height="20" viewBox="0 0 21 20" fill="none" xmlns="http://www.w3.org/2000/svg">
<path d="M11.9363 16.7951C11.6353 17.0797 11.1606 17.0665 10.876 16.7656C10.5914 16.4646 10.6046 15.9899 10.9055 15.7053L16.1446 10.7502H3.4209C3.00669 10.7502 2.6709 10.4144 2.6709 10.0002C2.6709 9.58598 3.00669 9.25019 3.4209 9.25019H16.1468L10.9055 4.29294C10.6046 4.00831 10.5914 3.53362 10.876 3.23269C11.1606 2.93175 11.6353 2.91853 11.9363 3.20316L18.3535 9.2726C18.5198 9.42989 18.6198 9.63 18.6535 9.83879C18.6649 9.89077 18.6709 9.94478 18.6709 10.0002C18.6709 10.0578 18.6644 10.1139 18.6521 10.1677C18.6171 10.3735 18.5176 10.5704 18.3535 10.7256L11.9363 16.7951Z" fill="white"/>
</svg>
