<svg width="21" height="20" viewBox="0 0 21 20" fill="none" xmlns="http://www.w3.org/2000/svg">
<path d="M9.39968 16.7948C9.70061 17.0795 10.1753 17.0662 10.4599 16.7653C10.7446 16.4644 10.7313 15.9897 10.4304 15.7051L5.19136 10.75H17.915C18.3293 10.75 18.665 10.4142 18.665 9.99995C18.665 9.58574 18.3293 9.24995 17.915 9.24995H5.18909L10.4304 4.29269C10.7313 4.00807 10.7446 3.53338 10.4599 3.23245C10.1753 2.93151 9.70061 2.91829 9.39968 3.20291L2.98245 9.27236C2.81616 9.42964 2.71615 9.62975 2.68245 9.83854C2.67105 9.89053 2.66504 9.94454 2.66504 9.99995C2.66504 10.0575 2.67153 10.1136 2.68382 10.1675C2.71881 10.3733 2.81835 10.5702 2.98245 10.7254L9.39968 16.7948Z" fill="white"/>
</svg>
