<svg width="17" height="17" viewBox="0 0 17 17" fill="none" xmlns="http://www.w3.org/2000/svg">
<path d="M3.66675 13.875H12.6667C13.081 13.875 13.4167 14.2108 13.4167 14.625C13.4167 15.0047 13.1346 15.3185 12.7685 15.3682L12.6667 15.375H3.66675C3.25253 15.375 2.91675 15.0392 2.91675 14.625C2.91675 14.2453 3.1989 13.9315 3.56498 13.8818L3.66675 13.875H12.6667H3.66675ZM8.06498 1.88185L8.16675 1.875C8.54644 1.875 8.86024 2.15715 8.9099 2.52323L8.91675 2.625V10.313L11.172 8.05914C11.4382 7.79287 11.8549 7.76866 12.1485 7.98652L12.2326 8.05914C12.4989 8.3254 12.5231 8.74207 12.3052 9.03568L12.2326 9.1198L8.69708 12.6553C8.43081 12.9216 8.01415 12.9458 7.72054 12.7279L7.63642 12.6553L4.10088 9.1198C3.80799 8.8269 3.80799 8.35203 4.10088 8.05914C4.36715 7.79287 4.78381 7.76866 5.07743 7.98652L5.16154 8.05914L7.41675 10.315V2.625C7.41675 2.2453 7.6989 1.93151 8.06498 1.88185L8.16675 1.875L8.06498 1.88185Z" fill="white"/>
</svg>
