<svg width="25" height="24" viewBox="0 0 25 24" fill="none" xmlns="http://www.w3.org/2000/svg">
<path d="M6.83334 2C5.45263 2 4.33334 3.11929 4.33334 4.5V19.5C4.33334 20.8807 5.45263 22 6.83334 22H20.0833C20.4976 22 20.8333 21.6642 20.8333 21.25C20.8333 20.8358 20.4976 20.5 20.0833 20.5H6.83334C6.28106 20.5 5.83334 20.0523 5.83334 19.5H20.0833C20.4976 19.5 20.8333 19.1642 20.8333 18.75V4.5C20.8333 3.11929 19.7141 2 18.3333 2H6.83334ZM8.33334 5H16.3333C16.8856 5 17.3333 5.44772 17.3333 6V7C17.3333 7.55228 16.8856 8 16.3333 8H8.33334C7.78106 8 7.33334 7.55228 7.33334 7V6C7.33334 5.44772 7.78106 5 8.33334 5Z" fill="#2F9B9D"/>
</svg>
