<svg width="32" height="32" viewBox="0 0 32 32" fill="none" xmlns="http://www.w3.org/2000/svg">
<path d="M4.40135 0.800781C1.97141 0.800781 0.00156242 2.77063 0.00156242 5.20057V13.5994C1.46106 11.6568 3.78442 10.4003 6.40125 10.4003C10.8193 10.4003 14.4009 13.9819 14.4009 18.3999C14.4009 20.2012 13.8055 21.8633 12.8009 23.2005V24.7996H27.6002C30.0301 24.7996 32 22.8298 32 20.3998V5.20057C32 2.77063 30.0301 0.800781 27.6002 0.800781H4.40135ZM7.60119 7.20047H24.4004C25.0631 7.20047 25.6003 7.7377 25.6003 8.40041C25.6003 9.06312 25.0631 9.60035 24.4004 9.60035H7.60119C6.93848 9.60035 6.40125 9.06312 6.40125 8.40041C6.40125 7.7377 6.93848 7.20047 7.60119 7.20047ZM16.0008 16.4C16.0008 15.7373 16.538 15.2001 17.2007 15.2001H24.4004C25.0631 15.2001 25.6003 15.7373 25.6003 16.4C25.6003 17.0627 25.0631 17.6 24.4004 17.6H17.2007C16.538 17.6 16.0008 17.0627 16.0008 16.4ZM6.40072 12.0002C2.8657 12.0002 0 14.8659 0 18.4009C0 21.936 2.8657 24.8017 6.40072 24.8017C9.93573 24.8017 12.8014 21.936 12.8014 18.4009C12.8014 14.8659 9.93573 12.0002 6.40072 12.0002ZM11.2022 24.8012C9.86487 25.8061 8.20233 26.4016 6.40072 26.4016C4.60053 26.4016 2.93921 25.807 1.60241 24.8036L1.60165 29.9973C1.60165 30.9105 2.5688 31.4683 3.3457 31.0674L3.48886 30.9809L6.40129 28.9454L9.31258 30.9809C10.0612 31.504 11.0724 31.0306 11.1887 30.1642L11.1998 29.9973L11.2022 24.8012Z" fill="#2F9B9D"/>
</svg>
