<svg width="32" height="28" viewBox="0 0 32 28" fill="none" xmlns="http://www.w3.org/2000/svg">
<path d="M0.000383668 20.2494V19.8773C0.000383668 13.9976 0.000383668 8.11821 0.000383668 2.23908C0.000383668 1.03057 0.665929 0.362435 1.87876 0.361572H30.1062C31.3224 0.361572 31.9889 1.02625 31.9889 2.23563V20.2494H0.000383668ZM29.6495 12.3517C29.6495 10.5424 29.6495 8.73369 29.6495 6.92552C29.6495 6.54052 29.5994 6.49391 29.2248 6.48787C28.6206 6.48787 28.0163 6.4965 27.412 6.48787C27.0996 6.4801 26.9986 6.61217 26.9986 6.91257C27.0049 10.5381 27.0049 14.166 26.9986 17.7961C26.9986 18.1647 27.0555 18.2182 27.4388 18.2199C28.0206 18.2199 28.603 18.2199 29.186 18.2199C29.6029 18.2199 29.6443 18.1759 29.6443 17.7495C29.6489 15.9488 29.6507 14.1495 29.6495 12.3517ZM27.1798 3.67117C26.2303 4.54389 25.3412 5.35705 24.4598 6.18142C24.2639 6.36529 24.0904 6.51808 23.7874 6.43176C23.6544 6.39464 23.4921 6.47492 23.3437 6.47233C23.1952 6.46974 23.026 6.47233 22.9121 6.40068C22.1067 5.88275 21.316 5.33719 20.5149 4.8089C20.4364 4.76656 20.3704 4.70447 20.3233 4.62877C20.2762 4.55307 20.2497 4.46638 20.2464 4.37729C20.2337 4.21528 20.1865 4.05786 20.1082 3.91548C20.0299 3.7731 19.9221 3.64903 19.7921 3.55153C19.6621 3.45402 19.5128 3.38532 19.3542 3.34999C19.1956 3.31465 19.0313 3.3135 18.8722 3.3466C18.2308 3.47436 17.8363 4.11573 17.9796 4.76833C18.0065 4.91545 17.9755 5.06727 17.8933 5.19217C16.8965 6.50772 15.8897 7.81349 14.8729 9.10948C14.773 9.22122 14.6338 9.29016 14.4844 9.30198C13.7826 9.34168 13.2664 9.91141 13.3424 10.5968C13.3618 10.7523 13.4124 10.9024 13.4912 11.0378C13.57 11.1733 13.6754 11.2915 13.801 11.3852C13.9266 11.479 14.0698 11.5464 14.2221 11.5835C14.3744 11.6205 14.5326 11.6264 14.6873 11.6007C15.339 11.4989 15.7508 10.8489 15.6144 10.1738C15.5882 10.0267 15.6191 9.87516 15.7007 9.74999C16.5717 8.59845 17.4548 7.45727 18.3396 6.31609C18.6192 5.9544 18.8281 5.47876 19.4272 5.58407C19.4454 5.58407 19.4678 5.56249 19.4876 5.56422C19.6145 5.57889 19.7682 5.55731 19.8649 5.62033C20.7057 6.16589 21.5401 6.72267 22.3682 7.29067C22.4711 7.374 22.5381 7.49353 22.5555 7.62473C22.6514 8.32999 23.1538 8.76246 23.8383 8.70721C24.459 8.65715 24.8828 8.12799 24.8742 7.44605C24.8739 7.31452 24.9229 7.18764 25.0114 7.0904C25.8436 6.30659 26.6869 5.5366 27.5286 4.7597C27.5945 4.70718 27.6634 4.65847 27.7349 4.61381C27.7064 4.79163 27.6788 4.91766 27.6658 5.04542C27.6513 5.16954 27.6828 5.29468 27.7541 5.39724C27.8255 5.4998 27.932 5.5727 28.0534 5.6022C28.3245 5.66349 28.6085 5.52883 28.6637 5.25691C28.8018 4.58273 28.9227 3.90424 29.0237 3.22402C29.0344 3.15912 29.0309 3.09267 29.0135 3.02924C28.9962 2.9658 28.9652 2.90688 28.9229 2.85653C28.8806 2.80617 28.8279 2.76557 28.7684 2.73752C28.7089 2.70946 28.644 2.69462 28.5783 2.694C27.9222 2.64969 27.265 2.61833 26.6067 2.59991C26.5389 2.59323 26.4705 2.60091 26.4059 2.62246C26.3413 2.64401 26.282 2.67893 26.2318 2.72496C26.1816 2.77098 26.1417 2.82707 26.1147 2.88956C26.0876 2.95206 26.0741 3.01955 26.0749 3.08763C26.0654 3.37854 26.2476 3.57449 26.5695 3.61592C26.7456 3.63923 26.9252 3.64873 27.1798 3.67117ZM20.4199 13.3859C20.4199 11.9115 20.4199 10.4363 20.4242 8.961C20.4242 8.65801 20.3155 8.52939 20.0064 8.53975C19.4022 8.5527 18.7979 8.55011 18.1937 8.53975C17.9114 8.53975 17.7828 8.63557 17.7836 8.93424C17.79 11.8951 17.79 14.8557 17.7836 17.8159C17.7836 18.1069 17.8916 18.2243 18.1833 18.2182C18.7764 18.2079 19.3703 18.2182 19.9633 18.2182C20.3811 18.2182 20.4182 18.1794 20.4191 17.7486C20.4208 16.2944 20.4211 14.8401 20.4199 13.3859ZM25.0399 14.4537C25.0399 13.3557 25.0399 12.2577 25.0399 11.1596C25.0399 10.7988 24.9657 10.728 24.6005 10.728C24.0075 10.728 23.4145 10.7341 22.8214 10.728C22.5262 10.7228 22.3898 10.8264 22.3941 11.1424C22.4028 13.3706 22.4028 15.5986 22.3941 17.8263C22.3941 18.1224 22.5115 18.2294 22.7981 18.2243C23.3911 18.2139 23.985 18.2243 24.5781 18.2243C24.989 18.2243 25.039 18.1725 25.039 17.7555C25.0408 16.6529 25.0411 15.5523 25.0399 14.4537ZM3.68635 10.7418C4.18874 10.0754 4.65143 9.447 5.1357 8.8272C5.28072 8.64247 5.30834 8.51558 5.17886 8.29891C4.68682 7.45122 4.89745 6.27465 5.74514 5.82923C6.34076 5.51329 6.38824 5.12484 6.35543 4.58619C6.32954 4.15458 6.35025 3.72296 6.35025 3.29135V2.75615C4.42009 3.09281 3.08209 4.10796 2.48301 5.92246C1.88912 7.72228 2.34317 9.32787 3.68635 10.7384V10.7418ZM11.3052 8.71412C11.7368 7.1232 11.4614 5.70147 10.4488 4.44376C9.67194 3.47781 8.65161 2.9288 7.38612 2.78032C7.38612 3.65736 7.38094 4.47483 7.39303 5.2923C7.39978 5.34412 7.41821 5.39373 7.44691 5.43739C7.47562 5.48105 7.51387 5.51763 7.55877 5.54436C8.37969 5.91469 8.80612 6.53362 8.81476 7.44346C8.81593 7.4913 8.82788 7.53826 8.8497 7.58085C8.87151 7.62344 8.90265 7.66057 8.94079 7.68947C9.7151 8.03045 10.4963 8.36193 11.3052 8.71067V8.71412ZM8.39868 8.58377C7.81601 9.22256 7.11507 9.43405 6.28465 9.21997C6.24592 9.2157 6.20673 9.22049 6.17018 9.23398C6.13362 9.24746 6.1007 9.26926 6.07402 9.29766C5.55609 9.96925 5.05283 10.6469 4.54353 11.3245C6.76201 12.7497 9.83681 11.7268 10.8606 9.64381L8.39868 8.58377ZM15.8112 15.9212C15.8112 15.2867 15.8034 14.6531 15.8112 14.0221C15.8172 13.7269 15.6903 13.6181 15.4055 13.6224C14.8012 13.6302 14.197 13.6319 13.5927 13.6224C13.2932 13.6172 13.1611 13.7329 13.1611 14.0385C13.168 15.2959 13.168 16.5536 13.1611 17.8116C13.1611 18.0922 13.2595 18.2268 13.5582 18.2208C14.1719 18.2096 14.7857 18.2079 15.3994 18.2208C15.7136 18.2277 15.8138 18.0939 15.8069 17.7944C15.7974 17.1711 15.8069 16.547 15.8069 15.9238L15.8112 15.9212ZM7.50784 14.1205C6.75424 14.1205 6.00065 14.1205 5.24619 14.1205C4.8586 14.1205 4.6264 14.3095 4.61777 14.6186C4.60913 14.9276 4.85947 15.152 5.25051 15.152C6.73698 15.152 8.22345 15.152 9.70992 15.152C10.101 15.152 10.3513 14.9293 10.3383 14.6134C10.3254 14.2974 10.0958 14.1222 9.7056 14.1205C8.97273 14.1162 8.24071 14.1205 7.50784 14.1205ZM7.44396 19.2998C8.19842 19.2998 8.95201 19.2998 9.70647 19.2998C10.0941 19.2998 10.3263 19.1134 10.3383 18.8061C10.3504 18.4988 10.101 18.2683 9.70906 18.2674C8.22259 18.2674 6.73611 18.2674 5.24964 18.2674C4.85601 18.2674 4.60741 18.4867 4.61777 18.8026C4.62812 19.1186 4.86033 19.2981 5.24705 19.2998C5.98166 19.305 6.71195 19.3033 7.44396 19.3033V19.2998ZM7.47158 17.2281C8.2036 17.2281 8.93906 17.2281 9.66848 17.2281C10.0932 17.2281 10.3444 17.027 10.3375 16.7007C10.3306 16.3744 10.0897 16.1948 9.6823 16.1948C8.21769 16.1948 6.7528 16.1948 5.28763 16.1948C4.86033 16.1948 4.61172 16.3916 4.61863 16.7188C4.62553 17.046 4.86896 17.2264 5.27382 17.2272C6.00669 17.2324 6.73871 17.2307 7.47158 17.2307V17.2281ZM3.38163 14.1205C3.29531 14.1205 3.20898 14.1153 3.12266 14.1205C2.83176 14.1403 2.6289 14.3311 2.61077 14.5979C2.60258 14.728 2.64453 14.8563 2.72801 14.9565C2.81149 15.0567 2.93016 15.1211 3.05965 15.1365C3.27222 15.1634 3.48752 15.1605 3.6993 15.1279C3.76135 15.1206 3.82135 15.1011 3.87578 15.0704C3.93021 15.0398 3.97799 14.9985 4.01632 14.9492C4.05465 14.8999 4.08277 14.8434 4.09903 14.7831C4.1153 14.7227 4.11938 14.6598 4.11105 14.5979C4.09206 14.3216 3.92632 14.149 3.63714 14.1222C3.55341 14.1162 3.46709 14.1248 3.38163 14.1248V14.1205ZM3.33502 19.299C3.41012 19.299 3.48522 19.299 3.56032 19.299C3.8892 19.2869 4.11105 19.0892 4.11882 18.8009C4.12659 18.5126 3.90733 18.289 3.58708 18.27C3.40555 18.2547 3.2229 18.2593 3.04238 18.2838C2.93106 18.3024 2.82906 18.3575 2.75242 18.4403C2.67578 18.5232 2.62883 18.6291 2.61895 18.7416C2.60907 18.854 2.63682 18.9665 2.69784 19.0615C2.75886 19.1564 2.84969 19.2284 2.95606 19.2662C3.08006 19.2969 3.20727 19.3128 3.33502 19.3136V19.299ZM3.37041 17.2238V17.229C3.43429 17.229 3.49903 17.229 3.56291 17.229C3.8892 17.2126 4.11192 17.0088 4.11882 16.7231C4.12573 16.4374 3.89611 16.2052 3.55341 16.1974C3.40362 16.1888 3.25346 16.1888 3.10367 16.1974C2.97392 16.2038 2.85132 16.2588 2.76018 16.3513C2.66904 16.4439 2.61602 16.5674 2.61163 16.6972C2.60989 16.8278 2.65714 16.9543 2.74407 17.0518C2.83099 17.1493 2.95129 17.2106 3.08123 17.2238C3.17753 17.2298 3.27411 17.2298 3.37041 17.2238Z" fill="#2F9B9D"/>
<path d="M0.000383655 21.3232H31.9336C32.2556 22.8572 31.3665 23.7687 30.1321 23.767C20.7034 23.752 11.2747 23.7492 1.84596 23.7584C0.680604 23.7584 0.00124688 23.0764 0.000383655 21.9111C-0.000479568 21.7194 0.000383655 21.5287 0.000383655 21.3232Z" fill="#2F9B9D"/>
<path d="M15.995 27.6377H8.39178C7.86262 27.6377 7.78062 27.4996 8.04131 27.0507C8.43667 26.3722 8.83806 25.6972 9.22738 25.0152C9.25816 24.9432 9.31058 24.8824 9.37739 24.8414C9.4442 24.8005 9.52209 24.7812 9.60029 24.7865C13.8589 24.7934 18.1189 24.7934 22.3803 24.7865C22.4584 24.7798 22.5367 24.7976 22.6042 24.8376C22.6716 24.8775 22.725 24.9375 22.7567 25.0092C23.1555 25.7101 23.5681 26.4033 23.973 27.1016C24.1896 27.4754 24.0964 27.636 23.6639 27.636C21.1082 27.6383 18.5519 27.6389 15.995 27.6377Z" fill="#2F9B9D"/>
</svg>
