<svg width="24" height="25" viewBox="0 0 24 25" fill="none" xmlns="http://www.w3.org/2000/svg">
<path d="M12 2.5C17.5228 2.5 22 6.97715 22 12.5C22 18.0228 17.5228 22.5 12 22.5C6.47715 22.5 2 18.0228 2 12.5C2 6.97715 6.47715 2.5 12 2.5ZM15.2197 9.46967L10.75 13.9393L8.78033 11.9697C8.48744 11.6768 8.01256 11.6768 7.71967 11.9697C7.42678 12.2626 7.42678 12.7374 7.71967 13.0303L10.2197 15.5303C10.5126 15.8232 10.9874 15.8232 11.2803 15.5303L16.2803 10.5303C16.5732 10.2374 16.5732 9.76256 16.2803 9.46967C15.9874 9.17678 15.5126 9.17678 15.2197 9.46967Z" fill="#2F9B9D"/>
</svg>
