<svg width="24" height="25" viewBox="0 0 24 25" fill="none" xmlns="http://www.w3.org/2000/svg">
<path d="M11.6667 13.9195L6.69835 18.8878C6.51246 19.0737 6.27588 19.1667 5.98859 19.1667C5.70131 19.1667 5.46472 19.0737 5.27883 18.8878C5.09294 18.7019 5 18.4654 5 18.1781C5 17.8908 5.09294 17.6542 5.27883 17.4683L10.2471 12.5L5.27883 7.53168C5.09294 7.34579 5 7.1092 5 6.82192C5 6.53464 5.09294 6.29805 5.27883 6.11216C5.46472 5.92627 5.70131 5.83333 5.98859 5.83333C6.27588 5.83333 6.51246 5.92627 6.69835 6.11216L11.6667 11.0805L16.635 6.11216C16.8209 5.92627 17.0575 5.83333 17.3447 5.83333C17.632 5.83333 17.8686 5.92627 18.0545 6.11216C18.2404 6.29805 18.3333 6.53464 18.3333 6.82192C18.3333 7.1092 18.2404 7.34579 18.0545 7.53168L13.0862 12.5L18.0545 17.4683C18.2404 17.6542 18.3333 17.8908 18.3333 18.1781C18.3333 18.4654 18.2404 18.7019 18.0545 18.8878C17.8686 19.0737 17.632 19.1667 17.3447 19.1667C17.0575 19.1667 16.8209 19.0737 16.635 18.8878L11.6667 13.9195Z" fill="#2F9B9D"/>
</svg>
