<svg width="38" height="36" viewBox="0 0 38 36" fill="none" xmlns="http://www.w3.org/2000/svg">
<path d="M11.9341 22.8775C11.4894 19.6241 11.4894 16.3253 11.9341 13.072H26.065C26.505 16.3257 26.505 19.6238 26.065 22.8775H11.9341Z" fill="white"/>
<path d="M25.6296 10.5583H12.317C12.6186 9.52894 12.8811 8.51298 13.2095 7.52275C13.7921 5.76051 14.5538 4.0765 15.7695 2.65086C16.2179 2.12391 16.7324 1.65687 17.3001 1.26124C18.3716 0.521142 19.508 0.523201 20.629 1.20051C21.4916 1.72239 22.1504 2.45425 22.7186 3.27155C24.102 5.26128 24.8802 7.50422 25.4669 9.82951C25.5256 10.0663 25.5729 10.303 25.6296 10.5583Z" fill="white"/>
<path d="M12.3572 25.3798H25.646C25.4824 26.016 25.3372 26.6315 25.1633 27.2388C24.6609 28.9949 24.0001 30.6851 23.0119 32.2342C22.4777 33.0721 21.8621 33.8411 21.0634 34.4463C19.7016 35.4757 18.3511 35.524 17.0047 34.4762C16.4 34.002 15.8626 33.448 15.4071 32.8292C13.7797 30.6151 12.9738 28.0541 12.3572 25.3798Z" fill="white"/>
<path d="M28.5591 22.8631C28.9651 19.6013 28.9651 16.3018 28.5591 13.04H28.9399C31.4423 13.04 33.9456 13.04 36.448 13.0349C36.7146 13.0349 36.8453 13.0833 36.9204 13.3787C37.698 16.4003 37.6931 19.5701 36.906 22.5893C36.8577 22.7756 36.8278 22.9104 36.5756 22.9094C33.9436 22.8991 31.3126 22.9001 28.6816 22.8981C28.6396 22.8907 28.5986 22.879 28.5591 22.8631Z" fill="white"/>
<path d="M9.44413 22.9043H9.05709C6.55475 22.9043 4.05139 22.9043 1.54802 22.9094C1.2773 22.9094 1.15275 22.8507 1.07967 22.5605C0.302271 19.5389 0.306876 16.3692 1.09305 13.3499C1.14966 13.1296 1.21863 13.0328 1.46876 13.0339C4.04933 13.0442 6.62887 13.04 9.20943 13.04C9.27222 13.04 9.33399 13.0483 9.43692 13.0555C9.0317 16.3261 9.03412 19.6343 9.44413 22.9043Z" fill="white"/>
<path d="M28.1751 10.5428C27.3084 6.66016 26.1051 2.9401 23.1921 0.0435262C24.454 -0.0686724 28.662 1.98178 30.765 3.73167C32.9886 5.57163 34.7535 7.90389 35.9199 10.5439L28.1751 10.5428Z" fill="white"/>
<path d="M14.8379 0.00646973C11.8847 2.94422 10.6845 6.66942 9.81366 10.5531H2.11416C3.3154 6.21136 10.2902 0.424384 14.8379 0.00646973Z" fill="white"/>
<path d="M28.1813 25.3819H35.9271C34.8523 27.8418 33.2507 30.0358 31.2354 31.8091C28.906 33.8678 26.2235 35.2461 23.1035 35.9934C26.1 33.0165 27.3074 29.2893 28.1813 25.3819Z" fill="white"/>
<path d="M14.8379 35.9337C10.3839 35.5878 3.49039 29.877 2.11313 25.3942H9.81984C10.6865 29.2811 11.8929 33.0145 14.8379 35.9337Z" fill="white"/>
</svg>
