<svg width="32" height="32" viewBox="0 0 32 32" fill="none" xmlns="http://www.w3.org/2000/svg">
<path d="M28.1017 26.4525C27.899 26.8196 27.6812 27.1529 27.5248 27.5129C27.3684 27.8729 27.2831 28.2471 27.1488 28.6684H8.73349C8.5893 28.6626 8.4449 28.6713 8.30242 28.6941C8.18223 28.7187 8.07462 28.785 7.99865 28.8813C7.92269 28.9776 7.8833 29.0977 7.88745 29.2203C7.8916 29.3429 7.93904 29.46 8.02135 29.551C8.10365 29.642 8.21551 29.7008 8.33708 29.7172C8.48056 29.732 8.62488 29.737 8.76905 29.7323H27.0786L28.0386 31.9605C27.9825 31.9673 27.9261 31.9712 27.8697 31.9721C20.8036 31.9721 13.7369 31.9721 6.66967 31.9721C5.13913 31.9721 3.981 30.9055 3.83524 29.3945C3.70547 28.0426 4.69116 26.7618 6.08749 26.4872C6.32828 26.4473 6.57237 26.4309 6.81632 26.4383C13.8054 26.4383 20.7944 26.4383 27.7835 26.4383C27.8857 26.4374 27.9923 26.4472 28.1017 26.4525Z" fill="#2F9B9D"/>
<path d="M16.0022 12.1844C15.4903 11.196 14.9996 10.2814 14.5428 9.34997C14.397 9.0531 14.237 8.93044 13.8922 8.94467C13.1269 8.97666 12.3599 8.95889 11.5937 8.95355C10.8462 8.94822 10.3387 8.44604 10.3369 7.69855C10.3328 5.73664 10.3328 3.77443 10.3369 1.81193C10.3369 0.940889 10.8231 0.452041 11.6977 0.451152C14.4862 0.451152 17.2741 0.451152 20.0614 0.451152C20.2394 0.445574 20.4175 0.451214 20.5947 0.468039C20.8913 0.496765 21.1663 0.635867 21.3652 0.857777C21.564 1.07969 21.6723 1.36821 21.6684 1.66616C21.6761 3.69444 21.6761 5.7233 21.6684 7.75277C21.6706 7.9117 21.6408 8.06944 21.5807 8.21659C21.5206 8.36374 21.4315 8.49728 21.3187 8.60926C21.2059 8.72123 21.0717 8.80935 20.9241 8.86835C20.7765 8.92734 20.6185 8.95602 20.4596 8.95267C19.649 8.96244 18.8384 8.96511 18.0278 8.95267C17.7745 8.94733 17.6359 9.0131 17.5177 9.25309C17.0359 10.2121 16.5355 11.1596 16.0022 12.1844ZM15.9933 7.41679C16.9808 7.41679 17.9683 7.41679 18.9558 7.41679C19.3557 7.41679 19.5904 7.22392 19.5984 6.90306C19.6064 6.5822 19.3602 6.35466 18.9504 6.35377C16.9873 6.35377 15.0239 6.35377 13.0602 6.35377C12.6416 6.35377 12.399 6.55731 12.4007 6.88706C12.4025 7.21681 12.6389 7.41679 13.0691 7.41679C14.0421 7.42094 15.0168 7.42094 15.9933 7.41679ZM16.8999 5.23653C17.611 5.23653 18.322 5.23653 19.0331 5.23653C19.3797 5.23653 19.5993 5.01877 19.6028 4.71746C19.6064 4.41615 19.3851 4.20284 19.0464 4.17795C18.9575 4.17173 18.8687 4.17795 18.7798 4.17795C16.9731 4.17795 15.1658 4.17795 13.358 4.17795C13.2027 4.17157 13.0472 4.17453 12.8923 4.18684C12.7591 4.19864 12.6353 4.26 12.5453 4.35876C12.4552 4.45752 12.4056 4.58649 12.4061 4.72013C12.4105 4.99833 12.6132 5.20453 12.9127 5.23298C13.0114 5.24186 13.1118 5.2392 13.2113 5.2392L16.8999 5.23653ZM15.9871 3.05094C16.9959 3.05094 18.0056 3.05627 19.0144 3.05094C19.3815 3.05094 19.6064 2.82518 19.5993 2.51231C19.593 2.21367 19.3753 2.01635 19.0242 1.99325C18.9469 1.98791 18.8687 1.99325 18.7913 1.99325C16.9284 1.99325 15.0654 1.99325 13.2025 1.99325C13.0697 1.98854 12.9369 1.99777 12.806 2.0208C12.7408 2.03385 12.6788 2.05965 12.6236 2.0967C12.5683 2.13376 12.5209 2.18135 12.4841 2.23675C12.4473 2.29215 12.4217 2.35427 12.409 2.41955C12.3962 2.48484 12.3964 2.552 12.4096 2.61719C12.4825 2.93894 12.7118 3.05538 13.0256 3.05449C14.0122 3.05005 14.9996 3.05182 15.9862 3.05094H15.9871Z" fill="#2F9B9D"/>
<path d="M9.94762 0.0280762C9.4561 0.573808 9.23656 1.15954 9.25967 1.74171C8.99303 1.68038 8.72638 1.57195 8.45974 1.56928C6.59323 1.55417 4.72672 1.56128 2.86021 1.56217C2.74932 1.55501 2.63799 1.55858 2.52779 1.57284C2.24337 1.62794 2.07449 1.80215 2.06738 2.09901C2.0652 2.23394 2.11601 2.36434 2.20891 2.46223C2.3018 2.56011 2.42937 2.61766 2.56423 2.62253C2.65306 2.62697 2.74205 2.62697 2.83088 2.62253C4.71961 2.62253 6.60834 2.62964 8.49618 2.61453C8.74949 2.61453 9.00103 2.50343 9.2499 2.44476V3.92908C9.00814 3.87042 8.76638 3.76288 8.52462 3.7611C6.61367 3.74688 4.70272 3.7531 2.79177 3.7531C2.71422 3.74821 2.63644 3.74821 2.5589 3.7531C2.26559 3.78776 2.08872 3.95575 2.07005 4.24817C2.05138 4.54059 2.21937 4.72724 2.50024 4.79746C2.60977 4.81548 2.72104 4.82055 2.83176 4.81257C4.69828 4.81257 6.56479 4.82057 8.4313 4.80546C8.70594 4.80546 8.98059 4.69791 9.25345 4.64103V6.26133C9.00458 5.87825 8.65439 5.94492 8.32464 5.94492C6.50257 5.94492 4.6805 5.94492 2.85843 5.94492C2.74753 5.94104 2.63649 5.94431 2.52601 5.95469C2.40694 5.96832 2.29623 6.02267 2.21262 6.10854C2.12901 6.19441 2.07763 6.30653 2.06717 6.42592C2.05672 6.54531 2.08783 6.66465 2.15525 6.76375C2.22266 6.86284 2.32224 6.9356 2.43713 6.96972C2.55484 7.00038 2.67647 7.01327 2.79799 7.00794C4.70894 7.00794 6.61989 7.01594 8.52996 7.00172C8.76371 7.00172 8.99747 6.88973 9.24101 6.82395C9.26589 7.32613 9.29434 7.91275 9.32989 8.52603L9.08191 8.57581V10.9641C8.96636 10.8601 8.89348 10.8023 8.82949 10.7356C8.18865 10.0735 7.5567 9.40241 6.90342 8.75357C6.77111 8.63204 6.60027 8.56093 6.4208 8.5527C4.75516 8.53848 3.08863 8.5447 1.4221 8.54381C0.477293 8.54381 0 8.07185 0 7.13948C0 5.23209 0 3.32469 0 1.41729C0 0.499148 0.47285 0.0307426 1.39811 0.0307426H9.9485L9.94762 0.0280762Z" fill="#2F9B9D"/>
<path d="M22.919 10.9987V8.57225L22.6683 8.52781C22.6986 7.93053 22.7288 7.34124 22.7572 6.83373C23.0168 6.88795 23.2905 6.99461 23.566 6.99638C25.4325 7.01149 27.2991 7.00527 29.1656 7.0026C29.2982 7.00907 29.4311 6.99649 29.5602 6.96528C29.6814 6.93733 29.7872 6.86394 29.8558 6.76024C29.9245 6.65654 29.9507 6.53045 29.9291 6.40799C29.9217 6.28968 29.8717 6.17805 29.7883 6.09375C29.705 6.00944 29.594 5.95815 29.4758 5.94936C29.3872 5.93982 29.2981 5.93655 29.2091 5.93958C27.2982 5.93958 25.3872 5.93336 23.4772 5.94758C23.2345 5.94758 22.9936 6.05691 22.751 6.11468V4.64725C23.0176 4.70324 23.2949 4.80812 23.5705 4.8099C25.437 4.82501 27.3035 4.8179 29.17 4.8179C29.2697 4.82222 29.3695 4.81895 29.4687 4.80812C29.6028 4.79309 29.726 4.72681 29.8124 4.62314C29.8989 4.51946 29.9419 4.38639 29.9326 4.25172C29.9293 4.12202 29.8764 3.99853 29.7848 3.90662C29.6932 3.81471 29.5699 3.76136 29.4402 3.75754C29.3514 3.75218 29.2624 3.75218 29.1736 3.75754C27.2848 3.75754 25.3961 3.75132 23.5083 3.76554C23.255 3.76554 23.0025 3.87398 22.7492 3.93175V2.45099C23.0016 2.50876 23.2532 2.6163 23.5065 2.61897C25.3943 2.63319 27.2831 2.62608 29.1718 2.62608C29.2606 2.63101 29.3496 2.63101 29.4384 2.62608C29.7326 2.59231 29.9024 2.42432 29.9326 2.13279C29.9427 1.99805 29.9002 1.86465 29.814 1.76058C29.7278 1.65652 29.6047 1.58986 29.4704 1.57461C29.36 1.56363 29.2489 1.56066 29.138 1.56573C27.2715 1.56573 25.405 1.55773 23.5385 1.57284C23.2718 1.57284 23.0105 1.68483 22.7386 1.74616C22.759 1.16132 22.5377 0.577364 22.0542 0.0316314H30.6028C31.5254 0.0316314 31.9991 0.503592 32 1.42085C32 3.33891 32 5.25727 32 7.17593C32 8.04607 31.5103 8.54203 30.6437 8.54381C28.9549 8.54381 27.2662 8.53937 25.5774 8.55359C25.3979 8.56191 25.2272 8.63373 25.0957 8.75624C24.3837 9.4664 23.6905 10.1988 22.919 10.9987Z" fill="#2F9B9D"/>
<path d="M11.5395 20.8797C11.0755 21.3294 10.5876 21.6992 10.2329 22.1693C9.7503 22.8111 9.36011 23.523 8.95214 24.2136C8.86326 24.3656 8.79571 24.4412 8.60906 24.4412C6.04305 24.434 3.47704 24.4412 0.911035 24.4349C0.323528 24.4349 0.0106657 24.0696 0.161764 23.5354C0.878149 21.0041 2.50912 19.3474 5.07247 18.7581C7.6127 18.1795 9.7743 18.9794 11.5395 20.8797Z" fill="#2F9B9D"/>
<path d="M20.4463 20.9143C21.56 19.6469 22.9163 18.8781 24.5704 18.6523C27.8777 18.2017 30.9859 20.2682 31.8178 23.4652C31.9769 24.0767 31.7031 24.4385 31.0667 24.4429C28.5117 24.4465 25.9567 24.4447 23.4016 24.4376C23.3416 24.4368 23.2825 24.4229 23.2284 24.3968C23.1744 24.3707 23.1267 24.333 23.0887 24.2865C22.0817 22.3675 22.0728 22.3489 20.4463 20.9143Z" fill="#2F9B9D"/>
<path d="M22.2888 25.3602H9.73874C9.73874 23.3346 12.7883 20.7935 15.4476 20.6006C19.3531 20.3179 21.7929 23.1595 22.2888 25.3602Z" fill="#2F9B9D"/>
<path d="M25.4601 11.2849C26.1161 11.2842 26.7576 11.478 27.3036 11.8417C27.8496 12.2054 28.2755 12.7227 28.5276 13.3284C28.7797 13.934 28.8467 14.6008 28.72 15.2445C28.5934 15.8882 28.2788 16.4799 27.816 16.9449C27.3533 17.4099 26.7631 17.7273 26.12 17.857C25.477 17.9868 24.8099 17.923 24.203 17.6738C23.5962 17.4247 23.0768 17.0012 22.7104 16.457C22.3441 15.9128 22.1473 15.2722 22.1448 14.6162C22.1467 13.736 22.4961 12.8922 23.1169 12.2683C23.7378 11.6444 24.5799 11.291 25.4601 11.2849Z" fill="#2F9B9D"/>
<path d="M12.6754 16.6C12.6742 15.9427 12.8679 15.2997 13.232 14.7525C13.5961 14.2052 14.1143 13.7781 14.7211 13.5253C15.3279 13.2725 15.996 13.2053 16.641 13.3321C17.286 13.459 17.8789 13.7742 18.3447 14.2379C18.8106 14.7017 19.1285 15.2932 19.2583 15.9376C19.3881 16.582 19.3239 17.2504 19.0738 17.8583C18.8238 18.4662 18.3991 18.9864 17.8535 19.353C17.3078 19.7196 16.6658 19.9162 16.0084 19.918C15.1276 19.9163 14.283 19.5667 13.6587 18.9453C13.0345 18.3238 12.681 17.4809 12.6754 16.6Z" fill="#2F9B9D"/>
<path d="M3.20329 14.6162C3.19944 13.9589 3.39056 13.3152 3.75249 12.7664C4.11442 12.2177 4.63091 11.7886 5.23668 11.5334C5.84244 11.2781 6.51028 11.2082 7.15577 11.3325C7.80125 11.4567 8.39541 11.7696 8.86313 12.2315C9.33085 12.6933 9.65113 13.2835 9.78349 13.9274C9.91584 14.5713 9.85433 15.2399 9.60672 15.8489C9.35912 16.4578 8.93654 16.9796 8.3924 17.3484C7.84826 17.7172 7.207 17.9164 6.54968 17.9208C5.66872 17.923 4.82262 17.5768 4.19578 16.9578C3.56895 16.3388 3.2122 15.4971 3.20329 14.6162Z" fill="#2F9B9D"/>
</svg>
