<svg width="21" height="20" viewBox="0 0 21 20" fill="none" xmlns="http://www.w3.org/2000/svg">
<path d="M5.59996 18.3333C5.14162 18.3333 4.7494 18.1702 4.42329 17.8441C4.09718 17.518 3.93384 17.1255 3.93329 16.6666V8.33325C3.93329 7.87492 4.09662 7.4827 4.42329 7.15659C4.74996 6.83048 5.14218 6.66714 5.59996 6.66659H6.43329V4.99992C6.43329 3.84714 6.83968 2.86464 7.65246 2.05242C8.46523 1.2402 9.44773 0.833808 10.6 0.833253C11.7522 0.832697 12.735 1.23909 13.5483 2.05242C14.3616 2.86575 14.7677 3.84825 14.7666 4.99992V6.66659H15.6C16.0583 6.66659 16.4508 6.82992 16.7775 7.15659C17.1041 7.48325 17.2672 7.87548 17.2666 8.33325V16.6666C17.2666 17.1249 17.1036 17.5174 16.7775 17.8441C16.4513 18.1708 16.0588 18.3338 15.6 18.3333H5.59996ZM5.59996 16.6666H15.6V8.33325H5.59996V16.6666ZM10.6 14.1666C11.0583 14.1666 11.4508 14.0035 11.7775 13.6774C12.1041 13.3513 12.2672 12.9588 12.2666 12.4999C12.2661 12.041 12.103 11.6488 11.7775 11.3233C11.4519 10.9977 11.0594 10.8344 10.6 10.8333C10.1405 10.8321 9.74829 10.9955 9.42329 11.3233C9.09829 11.651 8.93496 12.0433 8.93329 12.4999C8.93162 12.9566 9.09496 13.3491 9.42329 13.6774C9.75162 14.0058 10.1438 14.1688 10.6 14.1666ZM8.09996 6.66659H13.1V4.99992C13.1 4.30547 12.8569 3.7152 12.3708 3.22909C11.8847 2.74297 11.2944 2.49992 10.6 2.49992C9.90551 2.49992 9.31523 2.74297 8.82912 3.22909C8.34301 3.7152 8.09996 4.30547 8.09996 4.99992V6.66659Z" fill="#8C8C8C"/>
</svg>
