<svg width="24" height="24" viewBox="0 0 24 24" fill="none" xmlns="http://www.w3.org/2000/svg">
<path d="M6.78832 2.23726C6.65728 1.84432 6.86959 1.41955 7.26253 1.28851C7.65547 1.15747 8.08024 1.36978 8.21128 1.76272L8.96128 4.01171C9.09232 4.40465 8.88 4.82941 8.48706 4.96045C8.09412 5.09149 7.66936 4.87918 7.53832 4.48624L6.78832 2.23726ZM2.21967 2.21967C1.92678 2.51256 1.92678 2.98744 2.21967 3.28033L4.71967 5.78033C5.01256 6.07322 5.48744 6.07322 5.78033 5.78033C6.07322 5.48744 6.07322 5.01256 5.78033 4.71967L3.28033 2.21967C2.98744 1.92678 2.51256 1.92678 2.21967 2.21967ZM11.1294 3.74087C12.2453 2.54545 14.2139 2.84497 14.9237 4.31816L20.8215 16.5588C21.162 17.2655 21.0056 18.1114 20.4349 18.6497L18.9961 20.0065C18.4688 20.5037 17.6947 20.6362 17.032 20.3426L15.6146 19.7146C14.9725 21.0658 13.5952 22 11.9997 22C9.79051 22 7.99965 20.2091 7.99965 18C7.99965 17.4597 8.10676 16.9445 8.3009 16.4743L4.88097 14.9591C3.41911 14.3115 3.03209 12.4157 4.12312 11.2469L11.1294 3.74087ZM9.67341 17.0824C9.56127 17.3665 9.49965 17.6761 9.49965 18C9.49965 19.3807 10.6189 20.5 11.9997 20.5C12.9831 20.5 13.8338 19.9322 14.242 19.1066L9.67341 17.0824ZM5 8.24927C5 7.83505 4.66421 7.49927 4.25 7.49927H2.25C1.83579 7.49927 1.5 7.83505 1.5 8.24927C1.5 8.66348 1.83579 8.99927 2.25 8.99927H4.25C4.66421 8.99927 5 8.66348 5 8.24927Z" fill="#E9D02D"/>
</svg>
