<svg width="30" height="34" viewBox="0 0 30 34" fill="none" xmlns="http://www.w3.org/2000/svg">
<path d="M13.7917 18.6111V33.1111H7.34722C4.4554 33.1111 2.11111 30.7668 2.11111 27.875V18.6111H13.7917ZM27.8889 18.6111V27.875C27.8889 30.7668 25.5446 33.1111 22.6528 33.1111H16.2083V18.6111H27.8889ZM19.0278 0.888916C21.9196 0.888916 24.2639 3.2332 24.2639 6.12503C24.2639 7.16416 23.9612 8.13259 23.4392 8.94696L27.4861 8.94447C28.5984 8.94447 29.5 9.69585 29.5 10.6227V15.3218C29.5 16.2487 28.5984 17 27.4861 17L16.2083 16.9984V8.94447H13.7917V16.9984L2.51389 17C1.40165 17 0.5 16.2487 0.5 15.3218V10.6227C0.5 9.69585 1.40165 8.94447 2.51389 8.94447L6.56084 8.94696C6.03881 8.13259 5.73611 7.16416 5.73611 6.12503C5.73611 3.2332 8.0804 0.888916 10.9722 0.888916C12.5923 0.888916 14.0405 1.62465 15.0009 2.78022C15.9595 1.62465 17.4077 0.888916 19.0278 0.888916ZM10.9722 3.30558C9.41509 3.30558 8.15278 4.56789 8.15278 6.12503C8.15278 7.60431 9.29201 8.8175 10.741 8.93512L10.9722 8.94447H13.7917V6.12503L13.7823 5.89379C13.6647 4.44482 12.4515 3.30558 10.9722 3.30558ZM19.0278 3.30558C17.4706 3.30558 16.2083 4.56789 16.2083 6.12503V8.94447H19.0278C20.5849 8.94447 21.8472 7.68216 21.8472 6.12503C21.8472 4.56789 20.5849 3.30558 19.0278 3.30558Z" fill="#2F9B9D"/>
</svg>
