<svg width="21" height="20" viewBox="0 0 21 20" fill="none" xmlns="http://www.w3.org/2000/svg">
<path d="M10.2 2C14.6182 2 18.2 5.58172 18.2 10C18.2 14.4183 14.6182 18 10.2 18C5.78167 18 2.19995 14.4183 2.19995 10C2.19995 5.58172 5.78167 2 10.2 2ZM10.2 13.5C9.78574 13.5 9.44995 13.8358 9.44995 14.25C9.44995 14.6642 9.78574 15 10.2 15C10.6142 15 10.95 14.6642 10.95 14.25C10.95 13.8358 10.6142 13.5 10.2 13.5ZM10.2 5.5C8.81924 5.5 7.69995 6.61929 7.69995 8C7.69995 8.27614 7.92381 8.5 8.19995 8.5C8.47609 8.5 8.69995 8.27614 8.69995 8C8.69995 7.17157 9.37152 6.5 10.2 6.5C11.0284 6.5 11.7 7.17157 11.7 8C11.7 8.36931 11.566 8.71582 11.3319 8.98447L11.2256 9.09468L11.1076 9.19439L10.8609 9.37874C10.732 9.47988 10.6164 9.5832 10.5053 9.70162C9.99307 10.2475 9.69995 10.988 9.69995 12C9.69995 12.2761 9.92381 12.5 10.2 12.5C10.4761 12.5 10.7 12.2761 10.7 12C10.7 11.2422 10.8962 10.7464 11.2345 10.3859L11.31 10.3099L11.3906 10.2372L11.4781 10.1655L11.6966 10.0024L11.8513 9.8771C12.3848 9.40774 12.7 8.72959 12.7 8C12.7 6.61929 11.5807 5.5 10.2 5.5Z" fill="#2F9B9D"/>
</svg>
