<svg width="34" height="36" viewBox="0 0 34 36" fill="none" xmlns="http://www.w3.org/2000/svg">
<path d="M0.00177987 35.9576C-0.0232132 34.4248 0.215175 32.8991 0.706552 31.447C1.46866 29.0854 2.81343 26.9538 4.61673 25.2491C6.42003 23.5443 8.62373 22.3213 11.0244 21.693C11.2025 21.6179 11.4 21.6021 11.5878 21.6478C11.7756 21.6935 11.9437 21.7982 12.0675 21.9467C12.499 22.444 12.9603 22.9147 13.4488 23.3562C13.5697 23.4666 13.6651 23.6019 13.7283 23.7528C13.7916 23.9037 13.8213 24.0666 13.8153 24.2301C13.8153 26.6264 13.8153 29.0226 13.8153 31.447C13.8106 31.6842 13.8559 31.9197 13.9482 32.1383C14.0405 32.3568 14.1777 32.5535 14.3509 32.7156C14.9711 33.2794 15.535 33.8996 16.1552 34.4916C16.2553 34.6204 16.3836 34.7247 16.5301 34.7964C16.6767 34.8681 16.8377 34.9054 17.0009 34.9054C17.1641 34.9054 17.3251 34.8681 17.4716 34.7964C17.6182 34.7247 17.7465 34.6204 17.8466 34.4916L19.7072 32.631C19.8665 32.4985 19.9908 32.329 20.0694 32.1374C20.1481 31.9457 20.1786 31.7377 20.1583 31.5316C20.1583 29.1072 20.1583 26.6546 20.1583 24.202C20.1532 24.0495 20.1807 23.8976 20.2391 23.7566C20.2974 23.6156 20.3852 23.4887 20.4966 23.3844L22.1034 21.8057C22.2651 21.6837 22.4651 21.6236 22.6673 21.6366C25.5381 22.3358 28.1345 23.8767 30.1236 26.0616C32.1126 28.2466 33.4036 30.976 33.8309 33.8996C33.8309 34.5762 33.8309 35.2528 34 35.9576H0.00177987Z" fill="white"/>
<path d="M25.3736 8.49963C25.3736 10.1723 24.8776 11.8074 23.9483 13.1982C23.019 14.589 21.6981 15.673 20.1528 16.3131C18.6074 16.9532 16.9069 17.1207 15.2664 16.7944C13.6258 16.4681 12.1189 15.6626 10.9361 14.4798C9.75336 13.297 8.94788 11.7901 8.62155 10.1496C8.29523 8.50901 8.46271 6.80853 9.10282 5.26317C9.74293 3.71781 10.8269 2.39696 12.2177 1.46767C13.6085 0.538368 15.2436 0.0423584 16.9163 0.0423584C19.1593 0.0423584 21.3105 0.93339 22.8965 2.51944C24.4826 4.10548 25.3736 6.25662 25.3736 8.49963Z" fill="white"/>
<path d="M15.9014 25.8934C16.8599 26.6546 17.0009 26.6546 18.0158 25.8934C18.0158 26.0626 18.0158 26.2035 18.0158 26.3445C18.0158 27.7258 18.0158 29.1636 18.0158 30.4885C18.0535 30.733 18.0236 30.9831 17.9291 31.2118C17.8347 31.4404 17.6794 31.6388 17.4801 31.7853C17.3066 31.951 17.1463 32.1301 17.0009 32.3209C16.3525 31.7571 15.7887 31.3061 15.8451 30.3194C15.986 28.9098 15.9014 27.5003 15.9014 25.8934Z" fill="white"/>
<path d="M16.9163 23.7791L14.3791 21.2419H19.4535L16.9163 23.7791Z" fill="white"/>
</svg>
