<svg width="30" height="36" viewBox="0 0 30 36" fill="none" xmlns="http://www.w3.org/2000/svg">
<path d="M13.8837 35.8582C12.7369 35.4182 11.5929 34.9736 10.4423 34.5402C8.18523 33.6901 5.92629 32.8434 3.66549 32.0001C2.99581 31.7489 2.79211 31.456 2.79118 30.7481C2.79118 30.0971 2.79118 29.446 2.79118 28.7661C3.05161 28.7484 3.3046 28.7503 3.55015 28.7112C5.01974 28.4814 6.11169 27.4416 6.23819 25.9711C6.3405 24.8014 6.3405 23.6249 6.23819 22.4552C6.09402 20.8192 4.7686 19.704 3.11021 19.6742H2.80792C2.80792 18.8203 2.75863 17.9851 2.82373 17.1582C2.87582 16.4904 3.5855 16.1416 4.25704 16.389C5.74522 16.9387 7.23341 17.5052 8.72159 18.0586C10.3512 18.6687 11.977 19.2854 13.6131 19.8844C13.8707 19.9774 13.96 20.0946 13.9591 20.3783C13.9485 25.5386 13.946 30.6985 13.9516 35.8582H13.8837Z" fill="white"/>
<path d="M16.0462 35.8582C16.0462 30.6979 16.0444 25.5379 16.0407 20.3783C16.0407 20.1234 16.0955 19.9914 16.3523 19.8956C19.4415 18.7497 22.5276 17.596 25.6106 16.4346C26.5565 16.0802 27.2058 16.5276 27.2076 17.5396C27.2076 18.2353 27.2076 18.9348 27.2076 19.6361C26.8467 19.677 26.4979 19.6854 26.164 19.7598C24.8619 20.0462 23.8611 21.101 23.7569 22.4571C23.6592 23.6273 23.6592 24.8036 23.7569 25.9739C23.9048 27.5941 25.2358 28.713 26.8625 28.7437C26.9639 28.7437 27.0662 28.7437 27.1937 28.7437C27.1937 29.5483 27.2234 30.3249 27.1816 31.0979C27.1565 31.5573 26.8207 31.8224 26.3938 31.9805C24.7419 32.5935 23.0928 33.2167 21.4418 33.8361L16.302 35.7652C16.2388 35.7894 16.1793 35.8247 16.116 35.8582H16.0462Z" fill="white"/>
<path d="M15.6277 0.141785C16.1402 0.279442 16.6704 0.372453 17.1633 0.562196C19.6309 1.50998 21.2168 4.10779 20.9033 6.6405C20.5517 9.482 18.5092 11.5896 15.7635 11.9422C12.5704 12.3542 9.55497 10.0959 9.14107 6.98278C8.69462 3.62413 10.8832 0.676601 14.1758 0.202242C14.2427 0.187482 14.3084 0.167262 14.372 0.141785H15.6277Z" fill="white"/>
<path d="M23.1421 15.1241L22.2975 15.4412C19.9723 16.3137 17.6526 17.1899 15.3263 18.0521C15.1477 18.1201 14.9519 18.1283 14.7683 18.0753C12.2011 17.1285 9.63962 16.1649 7.07808 15.2041C7.02413 15.1845 6.97298 15.1566 6.82788 15.0887C7.42222 14.6599 7.94402 14.2274 8.52348 13.8796C9.13453 13.5251 9.76385 13.2032 10.4088 12.915C10.48 12.8882 10.5559 12.8761 10.6318 12.8796C10.7078 12.8832 10.7823 12.9022 10.8506 12.9355C13.6112 14.4956 16.3705 14.499 19.1286 12.9457C19.23 12.8881 19.3835 12.8258 19.4756 12.8611C20.8263 13.3839 22.0693 14.151 23.1421 15.1241Z" fill="white"/>
<path d="M4.18635 24.215C4.18635 24.668 4.19379 25.1219 4.18635 25.5748C4.17333 26.2073 3.73711 26.6501 3.09998 26.6501C2.70595 26.6659 2.31131 26.6438 1.92152 26.584C0.723536 26.3515 -0.0968253 25.2186 0.0092078 23.9974C0.0636973 23.413 0.325971 22.8676 0.748384 22.4603C1.1708 22.0529 1.72533 21.8105 2.31124 21.7772C2.59028 21.7642 2.86931 21.7642 3.14834 21.7772C3.28543 21.778 3.421 21.8059 3.54729 21.8592C3.67359 21.9125 3.78814 21.9902 3.88438 22.0878C3.98062 22.1854 4.05666 22.3011 4.10816 22.4281C4.15966 22.5552 4.1856 22.6911 4.18449 22.8282C4.19565 23.2849 4.18635 23.75 4.18635 24.215Z" fill="white"/>
<path d="M25.8124 24.1862C25.8124 23.7453 25.8078 23.3044 25.8124 22.8636C25.8218 22.2125 26.2543 21.7716 26.9063 21.7707C27.288 21.7553 27.6704 21.7755 28.0484 21.8311C28.6344 21.9464 29.157 22.2744 29.5156 22.752C29.8742 23.2296 30.0433 23.8229 29.9905 24.4178C29.9379 25.0141 29.6686 25.5704 29.2337 25.9817C28.7987 26.393 28.2282 26.6308 27.6299 26.6501C27.3862 26.6575 27.1425 26.6566 26.8988 26.6501C26.2477 26.637 25.8218 26.2008 25.8134 25.5441C25.8078 25.0912 25.8124 24.6391 25.8124 24.1862Z" fill="white"/>
</svg>
