<svg width="34" height="36" viewBox="0 0 34 36" fill="none" xmlns="http://www.w3.org/2000/svg">
<path d="M4.39897 3.72137V5.64406C3.86101 5.64406 3.33302 5.64406 2.81499 5.64406C2.29696 5.64406 1.91839 5.923 1.91839 6.54066V24.6917C1.91839 25.3392 2.19733 25.5982 2.91461 25.5982H31.0079C31.2757 25.6063 31.5418 25.5517 31.7849 25.4389C32.0838 25.2795 32.1037 24.9407 32.1037 24.622C32.1037 20.7832 32.1037 16.9478 32.1037 13.1157V6.62036C32.1037 5.90308 31.8546 5.62414 31.1075 5.62414C30.6193 5.62414 30.1113 5.62414 29.6132 5.62414V3.73133C30.5496 3.62165 31.4985 3.70299 32.4026 3.97042C32.8955 4.17805 33.3128 4.53212 33.5979 4.9847C33.883 5.43728 34.0221 5.96653 33.9965 6.50081C33.9965 8.20434 33.9965 9.91783 33.9965 11.6313C33.9965 17.064 33.9965 22.4967 33.9965 27.9294C34.03 28.5857 33.8213 29.2315 33.4098 29.7439C32.9984 30.2563 32.413 30.5997 31.765 30.7088C31.5627 30.7237 31.3596 30.7237 31.1573 30.7088H2.85484C2.47372 30.7323 2.09199 30.6743 1.73502 30.5387C1.37805 30.4032 1.05403 30.1932 0.784502 29.9228C0.514977 29.6523 0.306125 29.3275 0.171837 28.9701C0.0375481 28.6127 -0.0190992 28.2307 0.00566174 27.8497V6.57054C-0.0146811 6.18933 0.0457585 5.80811 0.18302 5.45188C0.320282 5.09565 0.531269 4.77244 0.802153 4.50344C1.07304 4.23443 1.39771 4.02571 1.75489 3.89093C2.11207 3.75615 2.49369 3.69837 2.87476 3.72137H4.39897ZM17.0011 29.3739C17.2604 29.3698 17.5126 29.2884 17.7255 29.1403C17.9384 28.9922 18.1023 28.7841 18.1964 28.5424C18.2904 28.3007 18.3104 28.0365 18.2536 27.7834C18.1969 27.5304 18.066 27.3 17.8778 27.1216C17.6895 26.9433 17.4523 26.825 17.1966 26.782C16.9408 26.739 16.6781 26.7732 16.4418 26.8802C16.2056 26.9872 16.0066 27.1621 15.8702 27.3827C15.7338 27.6033 15.6663 27.8595 15.6761 28.1187C15.6891 28.4596 15.835 28.7818 16.0827 29.0164C16.3303 29.251 16.66 29.3794 17.0011 29.3739Z" fill="white"/>
<path d="M7.16844 2.8447V14.7196C7.16844 15.4269 7.32784 15.5863 8.03515 15.5863H14.7496C15.8156 15.5863 16.2539 15.9549 16.4133 16.9909C16.4731 17.3297 16.6524 17.5389 17.0011 17.5289C17.3498 17.5189 17.4992 17.3197 17.549 16.9909C17.7184 15.9947 18.1467 15.5863 19.2127 15.5863H25.8873C26.6544 15.5863 26.7939 15.4369 26.7939 14.6897V2.85466C27.1885 2.82424 27.5848 2.82424 27.9794 2.85466C28.1288 2.85466 28.2782 3.08379 28.3779 3.24319C28.4775 3.40258 28.3779 3.49224 28.3779 3.62175V18.1565C28.3779 18.8439 28.2782 18.9435 27.6108 18.9435H19.0533C18.3659 18.9435 18.2065 19.093 18.1866 19.7704C18.1892 19.9343 18.1592 20.0971 18.0983 20.2492C18.0374 20.4014 17.9469 20.54 17.8319 20.6568C17.7169 20.7736 17.5798 20.8664 17.4286 20.9297C17.2775 20.993 17.1152 21.0256 16.9513 21.0256C16.7861 21.0269 16.6222 20.9954 16.4694 20.9328C16.3165 20.8702 16.1776 20.7778 16.0607 20.6609C15.9439 20.5441 15.8515 20.4052 15.7889 20.2523C15.7263 20.0994 15.6947 19.9356 15.696 19.7704C15.696 19.1029 15.5167 18.9435 14.8393 18.9435H6.3117C5.68408 18.9435 5.56454 18.824 5.56454 18.1964V3.57194C5.56454 2.96425 5.69405 2.8447 6.28181 2.8447H7.16844Z" fill="white"/>
<path d="M25.6283 14.4406H25.1999C23.2075 14.4406 21.3147 14.4406 19.3721 14.4406C18.7473 14.3819 18.12 14.5213 17.5789 14.8391C17.5789 14.6797 17.5789 14.5701 17.5789 14.4606V1.68909C17.5513 1.4732 17.5735 1.25385 17.6438 1.04787C17.7141 0.841896 17.8307 0.654774 17.9846 0.50087C18.1385 0.346967 18.3256 0.230374 18.5316 0.160043C18.7376 0.089712 18.9569 0.0675126 19.1728 0.0951491C21.1055 0.0951491 23.0381 0.0951491 24.9608 0.0951491C25.5486 0.0951491 25.6781 0.214695 25.6781 0.782537V14.0621C25.6482 14.1717 25.6383 14.2812 25.6283 14.4406ZM21.6434 6.10232C20.9859 6.10232 20.3284 6.10232 19.651 6.10232C19.5735 6.09093 19.4945 6.09628 19.4192 6.11803C19.3439 6.13978 19.2742 6.17742 19.2147 6.2284C19.1552 6.27939 19.1074 6.34253 19.0744 6.41359C19.0414 6.48464 19.024 6.56194 19.0234 6.64028C19.0189 6.7208 19.0317 6.80134 19.0608 6.87655C19.0899 6.95176 19.1347 7.01991 19.1922 7.07646C19.2497 7.13301 19.3186 7.17666 19.3942 7.20452C19.4699 7.23237 19.5507 7.24379 19.6311 7.23801C20.9262 7.23801 22.2312 7.23801 23.5263 7.23801C23.607 7.24685 23.6887 7.23797 23.7656 7.21199C23.8425 7.18601 23.9128 7.14355 23.9716 7.08758C24.0304 7.03162 24.0763 6.96348 24.1061 6.88795C24.1359 6.81241 24.1488 6.73129 24.1439 6.65024C24.1439 6.31153 23.9049 6.10232 23.4964 6.10232C22.8887 6.09236 22.2611 6.10232 21.6335 6.10232H21.6434ZM23.4864 10.5255C23.9447 10.5255 24.1938 10.3063 24.1838 9.94771C24.1738 9.58908 23.9347 9.38983 23.4964 9.38983H19.7407C19.2824 9.38983 19.0433 9.609 19.0433 9.96764C19.0433 10.3263 19.2924 10.5156 19.7307 10.5255H23.4864ZM23.5263 3.94054C23.9547 3.94054 24.2037 3.72137 24.2037 3.3727C24.2037 3.02402 23.9646 2.79489 23.5363 2.79489H19.7207C19.2924 2.79489 19.0433 3.01406 19.0433 3.36273C19.0433 3.71141 19.2924 3.94054 19.7108 3.94054H23.5263Z" fill="white"/>
<path d="M16.3934 14.8391C15.7423 14.4857 14.9963 14.3462 14.2615 14.4406H8.2842C8.2842 14.2713 8.2842 14.1318 8.2842 13.9923V0.84231C8.2842 0.214695 8.40375 0.0951491 9.0214 0.0951491C10.9541 0.0951491 12.8768 0.0951491 14.8094 0.0951491C15.0186 0.0705346 15.2307 0.0929464 15.4301 0.160748C15.6295 0.22855 15.8113 0.34003 15.9621 0.48705C16.1129 0.63407 16.229 0.812919 16.3019 1.01054C16.3748 1.20816 16.4027 1.41957 16.3834 1.62932C16.3834 5.94293 16.3834 10.2466 16.3834 14.5801C16.4133 14.62 16.4034 14.6797 16.3934 14.8391ZM14.2216 3.94054C14.6401 3.94054 14.8991 3.71141 14.8991 3.3727C14.8991 3.03398 14.6401 2.79489 14.2216 2.79489H10.446C10.0276 2.79489 9.76857 3.02402 9.76857 3.3727C9.76857 3.72137 10.0176 3.94054 10.446 3.94054H14.2216ZM12.3288 6.10232C11.6713 6.10232 11.0238 6.10232 10.3364 6.10232C10.2592 6.09256 10.1807 6.09908 10.1062 6.12145C10.0316 6.14382 9.96251 6.18156 9.90339 6.23223C9.84428 6.2829 9.79642 6.34538 9.76291 6.41566C9.72939 6.48594 9.71096 6.56245 9.70879 6.64028C9.70434 6.7208 9.71709 6.80134 9.74619 6.87655C9.77529 6.95176 9.82008 7.01991 9.87757 7.07646C9.93507 7.13301 10.0039 7.17666 10.0796 7.20452C10.1553 7.23237 10.236 7.24379 10.3165 7.23801C11.6116 7.23801 12.9066 7.23801 14.2117 7.23801C14.3623 7.23801 14.5067 7.17818 14.6132 7.07169C14.7197 6.9652 14.7795 6.82077 14.7795 6.67017C14.7795 6.51957 14.7197 6.37513 14.6132 6.26864C14.5067 6.16215 14.3623 6.10232 14.2117 6.10232C13.614 6.09236 12.9863 6.10232 12.3587 6.10232H12.3288ZM14.1918 10.5255C14.6201 10.5255 14.8692 10.2964 14.8692 9.95767C14.8692 9.61896 14.6102 9.38983 14.1818 9.38983H10.436C10.0077 9.38983 9.76857 9.609 9.76857 9.95767C9.76857 10.3063 10.0176 10.5156 10.446 10.5255H14.1918Z" fill="white"/>
<path d="M16.9812 35.9091H8.91182C8.7958 35.9189 8.67916 35.9189 8.56315 35.9091C8.41254 35.9091 8.26811 35.8492 8.16162 35.7427C8.05513 35.6363 7.9953 35.4918 7.9953 35.3412C7.9953 35.1906 8.05513 35.0462 8.16162 34.9397C8.26811 34.8332 8.41254 34.7734 8.56315 34.7734C8.58947 34.7683 8.61652 34.7683 8.64284 34.7734C9.47966 34.9726 9.87815 34.5243 10.1571 33.7772C10.3763 33.2193 10.705 32.7013 10.964 32.1533C10.9981 32.0671 11.0593 31.9943 11.1383 31.9458C11.2174 31.8972 11.31 31.8757 11.4024 31.8844H22.54C22.6326 31.874 22.726 31.8948 22.8054 31.9436C22.8848 31.9923 22.9457 32.0661 22.9784 32.1533C23.3669 32.9304 23.7654 33.6875 24.1439 34.4646C24.1756 34.56 24.2399 34.6413 24.3255 34.6941C24.4111 34.7469 24.5126 34.7679 24.6122 34.7535C24.8577 34.7385 25.1039 34.7385 25.3494 34.7535C25.5 34.7535 25.6444 34.8133 25.7509 34.9198C25.8574 35.0263 25.9172 35.1707 25.9172 35.3213C25.9172 35.4719 25.8574 35.6163 25.7509 35.7228C25.6444 35.8293 25.5 35.8891 25.3494 35.8891C24.7716 35.8891 24.1938 35.8891 23.6159 35.8891L16.9812 35.9091Z" fill="white"/>
</svg>
