<svg width="25" height="24" viewBox="0 0 25 24" fill="none" xmlns="http://www.w3.org/2000/svg">
<path d="M16.1666 17.25V16H13.4927C13.6064 16.4815 13.6666 16.9837 13.6666 17.5H15.9166C16.0547 17.5 16.1666 17.3881 16.1666 17.25ZM16.1666 14.5H12.9344C12.7195 14.0876 12.4615 13.7011 12.1666 13.3464V13H15.9166C16.0547 13 16.1666 13.1119 16.1666 13.25V14.5ZM7.16663 11C8.05422 11 8.90025 11.1779 9.67103 11.5H15.9166C16.8831 11.5 17.6666 12.2835 17.6666 13.25V17.25C17.6666 18.2165 16.8831 19 15.9166 19H13.4927C13.2217 20.1474 12.6465 21.1773 11.8571 22H18.6666C19.7712 22 20.6666 21.1046 20.6666 20V10H14.6666C13.5621 10 12.6666 9.10457 12.6666 8V2H6.66663C5.56206 2 4.66663 2.89543 4.66663 4V11.4982C5.43622 11.1772 6.28073 11 7.16663 11ZM14.1666 8V2.5L20.1666 8.5H14.6666C14.3905 8.5 14.1666 8.27614 14.1666 8ZM12.6666 17.5C12.6666 20.5376 10.2042 23 7.16663 23C4.12906 23 1.66663 20.5376 1.66663 17.5C1.66663 14.4624 4.12906 12 7.16663 12C10.2042 12 12.6666 14.4624 12.6666 17.5ZM10.5202 15.1464C10.3249 14.9512 10.0083 14.9512 9.81307 15.1464L6.16663 18.7929L4.52018 17.1464C4.32492 16.9512 4.00833 16.9512 3.81307 17.1464C3.61781 17.3417 3.61781 17.6583 3.81307 17.8536L5.81307 19.8536C6.00833 20.0488 6.32492 20.0488 6.52018 19.8536L10.5202 15.8536C10.7154 15.6583 10.7154 15.3417 10.5202 15.1464Z" fill="#2F9B9D"/>
</svg>
