<svg width="20" height="18" viewBox="0 0 20 18" fill="none" xmlns="http://www.w3.org/2000/svg">
<path fill-rule="evenodd" clip-rule="evenodd" d="M17.9283 0.574094C18.1742 0.470597 18.4434 0.434901 18.7078 0.470722C18.9722 0.506544 19.2221 0.612573 19.4316 0.777774C19.6411 0.942975 19.8025 1.16131 19.899 1.41005C19.9955 1.65879 20.0235 1.92884 19.9802 2.1921L17.7234 15.8815C17.5044 17.202 16.0556 17.9592 14.8446 17.3015C13.8316 16.7512 12.327 15.9034 10.9737 15.0188C10.297 14.5759 8.22427 13.1579 8.47901 12.1489C8.69793 11.2862 12.1807 8.0442 14.1709 6.11672C14.952 5.35946 14.5958 4.92262 13.6734 5.61918C11.3817 7.34864 7.70483 9.97865 6.48884 10.719C5.41614 11.3718 4.8569 11.4832 4.1882 11.3718C2.96823 11.1688 1.83682 10.8543 0.913377 10.4712C-0.33446 9.95377 -0.27376 8.23824 0.912382 7.73871L17.9283 0.574094Z" fill="white"/>
</svg>
