<svg version="1.2" xmlns="http://www.w3.org/2000/svg" viewBox="-4 -4 25 24" width="24" height="24"><style>.a{fill:#ffb300}</style><path fill-rule="evenodd" class="a" d="m8.7-2c5.5 0 10 4.5 10 10 0 5.5-4.5 10-10 10-5.6 0-10-4.5-10-10 0-5.5 4.4-10 10-10zm0 1.7c-4.6 0-8.4 3.7-8.4 8.3 0 4.6 3.8 8.3 8.4 8.3 4.6 0 8.3-3.7 8.3-8.3 0-4.6-3.7-8.3-8.3-8.3zm0 11.6c0.7 0 1.2 0.6 1.2 1.3 0 0.7-0.5 1.2-1.2 1.2-0.7 0-1.3-0.5-1.3-1.2 0-0.7 0.6-1.3 1.3-1.3zm0-9.1c0.4 0 0.7 0.3 0.8 0.7v0.1 5.8c0 0.5-0.4 0.9-0.8 0.9-0.4 0-0.8-0.3-0.9-0.7v-0.2-5.8c0-0.5 0.4-0.8 0.9-0.8z"/></svg>